# xmcd CD database file
#
# Track frame offsets:
#	150
#	38579
#	70375
#	93633
#	148231
#	172605
#	208066
#	238021
#	265872
#
# Disc length: 3791 seconds
#
# Revision: 0
# Processed by: cddbd v1.5.1PL0 Copyright (c) Steve Scherf et al.
# Submitted via: CDex 1.51
#
DISCID=7e0ecd09
DTITLE=Nicholas Walker Quartet - Message in a Bateau
DYEAR=1999
DGENRE=Jazz
TTITLE0=Summer Thing (N. Walker)
TTITLE1=Grace (J. Buckley)
TTITLE2=Air on the G String (Bach)
TTITLE3=Message in a Bottle (Sting)
TTITLE4=Here There and Everywhere (J. Lennon - P. McCartney)
TTITLE5=Descarga Cachao (I. Lopez)
TTITLE6=Agnus Dei (G. Fauré)
TTITLE7=Cherokee (C. Parker)
TTITLE8=The Chicken (A.J. Ellis)
EXTD=YEAR: 1999
EXTT0=
EXTT1=
EXTT2=
EXTT3=
EXTT4=
EXTT5=
EXTT6=
EXTT7=
EXTT8=
PLAYORDER=
